<svg width="1200" height="630" viewBox="0 0 1200 630" fill="none" xmlns="http://www.w3.org/2000/svg">
  <!-- Background -->
  <rect width="1200" height="630" fill="#050505"/>
  
  <!-- Massive Subtle Grid -->
  <path d="M0 100H1200M0 200H1200M0 300H1200M0 400H1200M0 500H1200M0 600H1200M100 0V630M200 0V630M300 0V630M400 0V630M500 0V630M600 0V630M700 0V630M800 0V630M900 0V630M1000 0V630M1100 0V630" stroke="#1A1A1A" stroke-width="1"/>

  <!-- Glowing Accents -->
  <circle cx="1000" cy="150" r="300" fill="#6366F1" fill-opacity="0.05"/>
  <circle cx="200" cy="500" r="200" fill="#6366F1" fill-opacity="0.03"/>

  <!-- Logo Mark (Left Side) -->
  <g transform="translate(100, 215) scale(0.4)">
    <rect width="512" height="512" rx="64" fill="black" stroke="#6366F1" stroke-width="4"/>
    <path d="M256 160L310 250H202L256 160Z" fill="#6366F1"/>
    <rect x="246" y="260" width="20" height="60" fill="#6366F1"/>
    <circle cx="256" cy="360" r="20" fill="#00FF00"/>
  </g>

  <!-- Typography -->
  <text x="350" y="300" fill="white" style="font-family: sans-serif; font-weight: 900; font-size: 100px; letter-spacing: -4px;">Geo<tspan fill="#6366F1">Drop</tspan></text>
  <text x="350" y="360" fill="#6366F1" style="font-family: monospace; font-size: 18px; letter-spacing: 4px; font-weight: bold;">CROSS-CHAIN // PHYSICAL_BOUNTIES</text>
  
  <!-- UI Element Mocks -->
  <rect x="350" y="420" width="180" height="40" rx="20" fill="#6366F1"/>
  <text x="385" y="445" fill="white" style="font-family: sans-serif; font-weight: bold; font-size: 14px;">CREATE A DROP</text>
  
  <rect x="550" y="420" width="180" height="40" rx="20" stroke="white" stroke-opacity="0.2" fill="white" fill-opacity="0.05"/>
  <text x="590" y="445" fill="white" style="font-family: sans-serif; font-weight: bold; font-size: 14px;">WATCH DEMO</text>

  <!-- Terminal Style Data Lines -->
  <text x="100" y="580" fill="#6366F1" style="font-family: monospace; font-size: 10px; opacity: 0.5;">[LOG] INITIALIZING_LOC_SYNC...</text>
  <text x="100" y="600" fill="#6366F1" style="font-family: monospace; font-size: 10px; opacity: 0.5;">[OK] SOLANA_MWA_READY</text>
  <text x="100" y="620" fill="#6366F1" style="font-family: monospace; font-size: 10px; opacity: 0.5;">[OK] LIFI_BRIDGE_ACTIVE</text>
</svg>